<?xml version="1.0" standalone="no"?>
<!DOCTYPE svg PUBLIC "-//W3C//DTD SVG 20010904//EN"
 "http://www.w3.org/TR/2001/REC-SVG-20010904/DTD/svg10.dtd">
<svg version="1.0" xmlns="http://www.w3.org/2000/svg"
 width="250.000000pt" height="250.000000pt" viewBox="0 0 250.000000 250.000000"
 preserveAspectRatio="xMidYMid meet">

<g transform="translate(0.000000,250.000000) scale(0.100000,-0.100000)"
fill="#000000" stroke="none">
<path d="M1091 1491 c-8 -6 3 -7 31 -4 54 6 72 -11 66 -61 -2 -19 0 -32 4 -30
14 9 9 72 -8 88 -17 17 -70 21 -93 7z"/>
<path d="M1024 1451 c-89 -64 -213 -221 -262 -329 l-17 -37 -6 75 -5 75 -2
-77 c-1 -42 2 -80 8 -83 5 -3 24 23 41 57 63 125 187 277 269 331 14 9 22 16
19 16 -3 1 -24 -12 -45 -28z"/>
<path d="M1709 1423 c-13 -16 -12 -17 4 -4 16 13 21 21 13 21 -2 0 -10 -8 -17
-17z"/>
<path d="M1421 1363 c-1 -6 -4 -20 -7 -30 -5 -17 -5 -17 6 0 6 10 9 23 6 30
-3 9 -5 9 -5 0z"/>
<path d="M722 1300 c0 -19 2 -27 5 -17 2 9 2 25 0 35 -3 9 -5 1 -5 -18z"/>
<path d="M1396 1295 c-9 -26 -7 -32 5 -12 6 10 9 21 6 23 -2 3 -7 -2 -11 -11z"/>
<path d="M1375 1241 c-3 -12 -10 -21 -14 -21 -16 0 -33 -52 -21 -64 8 -8 9 -6
4 8 -5 12 -4 17 3 13 10 -6 49 70 40 79 -3 3 -8 -4 -12 -15z"/>
<path d="M934 1183 c-28 -37 -28 -37 -34 -13 -5 20 -7 22 -12 8 -4 -9 -17 -22
-29 -28 -20 -11 -21 -10 -16 11 6 23 5 23 -9 5 -19 -26 -3 -42 26 -26 18 10
24 9 32 -1 7 -11 14 -7 34 16 27 32 47 65 41 65 -3 0 -17 -17 -33 -37z"/>
<path d="M1740 1192 c0 -21 -19 -42 -38 -42 -9 0 -11 7 -7 21 7 20 6 21 -12 2
-19 -18 -19 -18 4 -27 13 -6 23 -16 23 -24 0 -9 9 -12 27 -10 19 2 29 10 34
31 5 20 4 27 -7 27 -20 0 -17 28 4 33 13 4 11 5 -5 6 -16 1 -23 -5 -23 -17z
m14 -63 c-3 -5 -11 -9 -19 -9 -11 0 -12 7 -6 39 1 2 8 -2 16 -9 8 -7 12 -16 9
-21z"/>
<path d="M1055 1190 c3 -5 8 -10 11 -10 2 0 4 5 4 10 0 6 -5 10 -11 10 -5 0
-7 -4 -4 -10z"/>
<path d="M1212 1175 c-34 -29 -57 -33 -48 -9 5 13 1 15 -19 12 -13 -3 -26 -2
-27 3 -2 4 -11 -4 -21 -17 -14 -19 -15 -24 -4 -24 8 0 20 7 27 15 16 19 30 19
30 -1 0 -12 10 -15 53 -12 35 2 54 7 54 15 0 16 -9 17 -25 1 -6 -6 -15 -8 -19
-4 -10 9 27 37 38 30 5 -3 9 0 9 5 0 18 -16 13 -48 -14z"/>
<path d="M1380 1181 c-12 -23 -13 -51 -2 -51 4 0 18 7 30 16 12 8 22 11 22 6
0 -15 103 -12 127 4 29 18 34 18 26 -3 -5 -14 -1 -13 23 6 l29 23 6 -24 c5
-23 5 -22 11 4 5 26 3 27 -31 24 -20 -2 -44 -7 -54 -11 -14 -6 -16 -4 -11 11
5 12 -1 9 -15 -8 -28 -35 -58 -39 -40 -6 l12 21 -28 -21 c-37 -29 -47 -28 -39
6 l7 27 -37 -34 c-38 -37 -42 -37 -26 3 11 30 5 34 -10 7z"/>
<path d="M1007 1165 l-28 -25 44 1 c34 2 44 6 40 16 -4 10 -9 11 -19 2 -19
-16 -30 -3 -14 16 18 22 9 18 -23 -10z"/>
<path d="M956 1164 c-8 -21 -8 -34 2 -34 4 0 8 11 8 25 2 29 -1 32 -10 9z"/>
<path d="M1279 1153 c-13 -16 -12 -17 4 -4 9 7 17 15 17 17 0 8 -8 3 -21 -13z"/>
<path d="M1324 1143 c4 -7 3 -13 -2 -13 -9 0 -34 -71 -27 -78 2 -2 13 15 25
38 17 33 19 45 9 54 -9 8 -10 8 -5 -1z"/>
</g>
</svg>
